<svg xmlns="http://www.w3.org/2000/svg" xmlns:xlink="http://www.w3.org/1999/xlink" width="500" zoomAndPan="magnify" viewBox="0 0 375 374.999991" height="500" preserveAspectRatio="xMidYMid meet" version="1.0"><defs><g/><clipPath id="30d28dac70"><path d="M 57.394531 148.125 L 140.921875 148.125 L 140.921875 162.621094 L 57.394531 162.621094 Z M 57.394531 148.125 " clip-rule="nonzero"/></clipPath><clipPath id="81c2e99537"><path d="M 138.140625 162.621094 L 60.128906 162.621094 C 58.625 162.621094 57.394531 161.394531 57.394531 159.890625 L 57.394531 150.855469 C 57.394531 149.351562 58.625 148.125 60.128906 148.125 L 138.140625 148.125 C 139.648438 148.125 140.875 149.351562 140.875 150.855469 L 140.875 159.890625 C 140.875 161.394531 139.648438 162.621094 138.140625 162.621094 Z M 138.140625 162.621094 " clip-rule="nonzero"/></clipPath><clipPath id="de19e93287"><path d="M 63.753906 169.054688 L 129.953125 169.054688 L 129.953125 183.550781 L 63.753906 183.550781 Z M 63.753906 169.054688 " clip-rule="nonzero"/></clipPath><clipPath id="44fb8d5a77"><path d="M 127.199219 183.550781 L 66.484375 183.550781 C 64.980469 183.550781 63.753906 182.324219 63.753906 180.816406 L 63.753906 171.785156 C 63.753906 170.28125 64.980469 169.054688 66.484375 169.054688 L 127.199219 169.054688 C 128.703125 169.054688 129.929688 170.28125 129.929688 171.785156 L 129.929688 180.816406 C 129.929688 182.324219 128.703125 183.550781 127.199219 183.550781 Z M 127.199219 183.550781 " clip-rule="nonzero"/></clipPath><clipPath id="4f0a5ffed7"><path d="M 63.753906 190.632812 L 112.851562 190.632812 L 112.851562 205.128906 L 63.753906 205.128906 Z M 63.753906 190.632812 " clip-rule="nonzero"/></clipPath><clipPath id="4e1df28b52"><path d="M 110.097656 205.128906 L 66.484375 205.128906 C 64.980469 205.128906 63.753906 203.902344 63.753906 202.394531 L 63.753906 193.363281 C 63.753906 191.859375 64.980469 190.632812 66.484375 190.632812 L 110.097656 190.632812 C 111.605469 190.632812 112.832031 191.859375 112.832031 193.363281 L 112.832031 202.394531 C 112.832031 203.902344 111.605469 205.128906 110.097656 205.128906 Z M 110.097656 205.128906 " clip-rule="nonzero"/></clipPath><clipPath id="29e0f7794d"><path d="M 57.394531 212.378906 L 102.585938 212.378906 L 102.585938 226.875 L 57.394531 226.875 Z M 57.394531 212.378906 " clip-rule="nonzero"/></clipPath><clipPath id="73b53c64e2"><path d="M 99.839844 226.875 L 60.128906 226.875 C 58.625 226.875 57.394531 225.648438 57.394531 224.144531 L 57.394531 215.109375 C 57.394531 213.605469 58.625 212.378906 60.128906 212.378906 L 99.839844 212.378906 C 101.34375 212.378906 102.570312 213.605469 102.570312 215.109375 L 102.570312 224.144531 C 102.570312 225.648438 101.34375 226.875 99.839844 226.875 Z M 99.839844 226.875 " clip-rule="nonzero"/></clipPath><clipPath id="63fb371418"><path d="M 21.417969 148.125 L 93.417969 148.125 L 93.417969 226.875 L 21.417969 226.875 Z M 21.417969 148.125 " clip-rule="nonzero"/></clipPath><clipPath id="a753d88737"><path d="M 21.417969 176 L 52 176 L 52 199 L 21.417969 199 Z M 21.417969 176 " clip-rule="nonzero"/></clipPath></defs><rect x="-37.5" width="450" fill="#ffffff" y="-37.499999" height="449.999989" fill-opacity="1"/><g clip-path="url(#30d28dac70)"><g clip-path="url(#81c2e99537)"><path fill="#44d9e6" d="M 57.394531 148.125 L 140.867188 148.125 L 140.867188 162.621094 L 57.394531 162.621094 Z M 57.394531 148.125 " fill-opacity="1" fill-rule="nonzero"/></g></g><g clip-path="url(#de19e93287)"><g clip-path="url(#44fb8d5a77)"><path fill="#44d9e6" d="M 63.753906 169.054688 L 129.953125 169.054688 L 129.953125 183.550781 L 63.753906 183.550781 Z M 63.753906 169.054688 " fill-opacity="1" fill-rule="nonzero"/></g></g><g clip-path="url(#4f0a5ffed7)"><g clip-path="url(#4e1df28b52)"><path fill="#44d9e6" d="M 63.753906 190.632812 L 112.851562 190.632812 L 112.851562 205.128906 L 63.753906 205.128906 Z M 63.753906 190.632812 " fill-opacity="1" fill-rule="nonzero"/></g></g><g clip-path="url(#29e0f7794d)"><g clip-path="url(#73b53c64e2)"><path fill="#2a878f" d="M 57.394531 212.378906 L 102.585938 212.378906 L 102.585938 226.875 L 57.394531 226.875 Z M 57.394531 212.378906 " fill-opacity="1" fill-rule="nonzero"/></g></g><g clip-path="url(#63fb371418)"><path fill="#1d1d1b" d="M 53.984375 148.125 L 21.449219 148.125 L 21.449219 168.582031 L 42.054688 168.582031 C 52.507812 168.582031 60.980469 177.050781 60.980469 187.496094 C 60.980469 192.71875 58.863281 197.449219 55.4375 200.871094 C 52.011719 204.292969 47.28125 206.410156 42.054688 206.410156 L 21.449219 206.410156 L 21.449219 226.871094 L 53.984375 226.871094 C 64.863281 226.871094 74.714844 222.464844 81.84375 215.335938 C 88.972656 208.210938 93.382812 198.371094 93.382812 187.496094 C 93.382812 165.75 75.742188 148.125 53.984375 148.125 " fill-opacity="1" fill-rule="nonzero"/></g><g clip-path="url(#a753d88737)"><path fill="#1d1d1b" d="M 47.785156 195.59375 C 49.859375 193.523438 51.140625 190.65625 51.140625 187.496094 C 51.140625 181.171875 46.011719 176.042969 39.679688 176.042969 L 21.449219 176.042969 L 21.449219 198.949219 L 39.679688 198.949219 C 42.847656 198.949219 45.710938 197.667969 47.785156 195.59375 " fill-opacity="1" fill-rule="nonzero"/></g><g fill="#2a878f" fill-opacity="1"><g transform="translate(144.302441, 224.704579)"><g><path d="M 4.328125 -5.359375 L 4.328125 -4.546875 L 2.703125 -4.546875 L 2.703125 0 L 1.703125 0 L 1.703125 -4.546875 L 0.09375 -4.546875 L 0.09375 -5.359375 Z M 4.328125 -5.359375 "/></g></g></g><g fill="#2a878f" fill-opacity="1"><g transform="translate(149.837781, 224.704579)"><g><path d="M 5.0625 0 L 4.0625 0 L 4.0625 -2.34375 L 1.546875 -2.34375 L 1.546875 0 L 0.546875 0 L 0.546875 -5.359375 L 1.546875 -5.359375 L 1.546875 -3.0625 L 4.0625 -3.0625 L 4.0625 -5.359375 L 5.0625 -5.359375 Z M 5.0625 0 "/></g></g></g><g fill="#2a878f" fill-opacity="1"><g transform="translate(156.569241, 224.704579)"><g><path d="M 3.921875 -5.359375 L 3.921875 -4.578125 L 1.546875 -4.578125 L 1.546875 -3.078125 L 3.421875 -3.078125 L 3.421875 -2.3125 L 1.546875 -2.3125 L 1.546875 -0.796875 L 3.921875 -0.796875 L 3.921875 0 L 0.546875 0 L 0.546875 -5.359375 Z M 3.921875 -5.359375 "/></g></g></g><g fill="#2a878f" fill-opacity="1"><g transform="translate(161.937424, 224.704579)"><g/></g></g><g fill="#2a878f" fill-opacity="1"><g transform="translate(164.48619, 224.704579)"><g><path d="M 4.234375 -1.265625 C 4.285156 -1.265625 4.332031 -1.242188 4.375 -1.203125 L 4.765625 -0.78125 C 4.546875 -0.507812 4.273438 -0.300781 3.953125 -0.15625 C 3.640625 -0.0078125 3.257812 0.0625 2.8125 0.0625 C 2.414062 0.0625 2.054688 -0.00390625 1.734375 -0.140625 C 1.421875 -0.273438 1.148438 -0.460938 0.921875 -0.703125 C 0.703125 -0.953125 0.53125 -1.242188 0.40625 -1.578125 C 0.289062 -1.910156 0.234375 -2.28125 0.234375 -2.6875 C 0.234375 -3.082031 0.296875 -3.445312 0.421875 -3.78125 C 0.554688 -4.125 0.742188 -4.414062 0.984375 -4.65625 C 1.234375 -4.894531 1.523438 -5.082031 1.859375 -5.21875 C 2.203125 -5.351562 2.578125 -5.421875 2.984375 -5.421875 C 3.378906 -5.421875 3.722656 -5.359375 4.015625 -5.234375 C 4.316406 -5.109375 4.578125 -4.941406 4.796875 -4.734375 L 4.453125 -4.265625 C 4.441406 -4.234375 4.421875 -4.207031 4.390625 -4.1875 C 4.359375 -4.164062 4.3125 -4.15625 4.25 -4.15625 C 4.195312 -4.15625 4.140625 -4.175781 4.078125 -4.21875 C 4.023438 -4.257812 3.953125 -4.304688 3.859375 -4.359375 C 3.765625 -4.410156 3.644531 -4.457031 3.5 -4.5 C 3.363281 -4.550781 3.1875 -4.578125 2.96875 -4.578125 C 2.71875 -4.578125 2.488281 -4.53125 2.28125 -4.4375 C 2.070312 -4.351562 1.890625 -4.226562 1.734375 -4.0625 C 1.578125 -3.90625 1.457031 -3.707031 1.375 -3.46875 C 1.289062 -3.238281 1.25 -2.976562 1.25 -2.6875 C 1.25 -2.382812 1.289062 -2.113281 1.375 -1.875 C 1.457031 -1.644531 1.570312 -1.445312 1.71875 -1.28125 C 1.863281 -1.125 2.035156 -1 2.234375 -0.90625 C 2.429688 -0.820312 2.644531 -0.78125 2.875 -0.78125 C 3.007812 -0.78125 3.132812 -0.785156 3.25 -0.796875 C 3.363281 -0.816406 3.460938 -0.84375 3.546875 -0.875 C 3.640625 -0.90625 3.726562 -0.945312 3.8125 -1 C 3.894531 -1.050781 3.976562 -1.113281 4.0625 -1.1875 C 4.082031 -1.207031 4.109375 -1.222656 4.140625 -1.234375 C 4.171875 -1.253906 4.203125 -1.265625 4.234375 -1.265625 Z M 4.234375 -1.265625 "/></g></g></g><g fill="#2a878f" fill-opacity="1"><g transform="translate(170.582444, 224.704579)"><g><path d="M 1.578125 -2.09375 L 1.578125 0 L 0.578125 0 L 0.578125 -5.359375 L 2.21875 -5.359375 C 2.582031 -5.359375 2.894531 -5.320312 3.15625 -5.25 C 3.414062 -5.175781 3.628906 -5.070312 3.796875 -4.9375 C 3.960938 -4.800781 4.082031 -4.632812 4.15625 -4.4375 C 4.238281 -4.25 4.28125 -4.046875 4.28125 -3.828125 C 4.28125 -3.640625 4.253906 -3.460938 4.203125 -3.296875 C 4.148438 -3.140625 4.070312 -2.992188 3.96875 -2.859375 C 3.863281 -2.734375 3.738281 -2.617188 3.59375 -2.515625 C 3.445312 -2.421875 3.28125 -2.347656 3.09375 -2.296875 C 3.21875 -2.222656 3.328125 -2.117188 3.421875 -1.984375 L 4.765625 0 L 3.859375 0 C 3.773438 0 3.703125 -0.015625 3.640625 -0.046875 C 3.585938 -0.0859375 3.535156 -0.140625 3.484375 -0.203125 L 2.359375 -1.921875 C 2.316406 -1.984375 2.269531 -2.023438 2.21875 -2.046875 C 2.175781 -2.078125 2.101562 -2.09375 2 -2.09375 Z M 1.578125 -2.8125 L 2.203125 -2.8125 C 2.390625 -2.8125 2.550781 -2.832031 2.6875 -2.875 C 2.820312 -2.925781 2.9375 -2.992188 3.03125 -3.078125 C 3.125 -3.160156 3.191406 -3.257812 3.234375 -3.375 C 3.273438 -3.488281 3.296875 -3.613281 3.296875 -3.75 C 3.296875 -4.019531 3.207031 -4.226562 3.03125 -4.375 C 2.851562 -4.519531 2.582031 -4.59375 2.21875 -4.59375 L 1.578125 -4.59375 Z M 1.578125 -2.8125 "/></g></g></g><g fill="#2a878f" fill-opacity="1"><g transform="translate(176.563541, 224.704579)"><g><path d="M 3.234375 -2.234375 C 3.273438 -2.148438 3.3125 -2.066406 3.34375 -1.984375 C 3.382812 -1.898438 3.421875 -1.8125 3.453125 -1.71875 C 3.492188 -1.8125 3.53125 -1.898438 3.5625 -1.984375 C 3.601562 -2.066406 3.644531 -2.148438 3.6875 -2.234375 L 5.265625 -5.203125 C 5.285156 -5.242188 5.304688 -5.273438 5.328125 -5.296875 C 5.347656 -5.316406 5.367188 -5.332031 5.390625 -5.34375 C 5.421875 -5.351562 5.453125 -5.359375 5.484375 -5.359375 C 5.523438 -5.359375 5.566406 -5.359375 5.609375 -5.359375 L 6.359375 -5.359375 L 6.359375 0 L 5.484375 0 L 5.484375 -3.46875 C 5.484375 -3.53125 5.484375 -3.597656 5.484375 -3.671875 C 5.492188 -3.753906 5.5 -3.832031 5.5 -3.90625 L 3.875 -0.875 C 3.84375 -0.800781 3.796875 -0.742188 3.734375 -0.703125 C 3.671875 -0.671875 3.601562 -0.65625 3.53125 -0.65625 L 3.390625 -0.65625 C 3.304688 -0.65625 3.234375 -0.671875 3.171875 -0.703125 C 3.117188 -0.742188 3.078125 -0.800781 3.046875 -0.875 L 1.390625 -3.921875 C 1.398438 -3.835938 1.40625 -3.753906 1.40625 -3.671875 C 1.414062 -3.597656 1.421875 -3.53125 1.421875 -3.46875 L 1.421875 0 L 0.546875 0 L 0.546875 -5.359375 L 1.296875 -5.359375 C 1.335938 -5.359375 1.375 -5.359375 1.40625 -5.359375 C 1.4375 -5.359375 1.460938 -5.351562 1.484375 -5.34375 C 1.515625 -5.332031 1.539062 -5.316406 1.5625 -5.296875 C 1.59375 -5.273438 1.617188 -5.242188 1.640625 -5.203125 Z M 3.234375 -2.234375 "/></g></g></g><g fill="#2a878f" fill-opacity="1"><g transform="translate(184.587695, 224.704579)"><g/></g></g><g fill="#2a878f" fill-opacity="1"><g transform="translate(187.136461, 224.704579)"><g><path d="M 3.921875 -5.359375 L 3.921875 -4.578125 L 1.546875 -4.578125 L 1.546875 -2.984375 L 3.5625 -2.984375 L 3.5625 -2.1875 L 1.546875 -2.1875 L 1.546875 0 L 0.546875 0 L 0.546875 -5.359375 Z M 3.921875 -5.359375 "/></g></g></g><g fill="#2a878f" fill-opacity="1"><g transform="translate(192.42292, 224.704579)"><g><path d="M 5.6875 -2.6875 C 5.6875 -2.289062 5.617188 -1.925781 5.484375 -1.59375 C 5.359375 -1.257812 5.175781 -0.96875 4.9375 -0.71875 C 4.695312 -0.476562 4.410156 -0.285156 4.078125 -0.140625 C 3.742188 -0.00390625 3.375 0.0625 2.96875 0.0625 C 2.5625 0.0625 2.191406 -0.00390625 1.859375 -0.140625 C 1.523438 -0.285156 1.238281 -0.476562 1 -0.71875 C 0.757812 -0.96875 0.570312 -1.257812 0.4375 -1.59375 C 0.3125 -1.925781 0.25 -2.289062 0.25 -2.6875 C 0.25 -3.070312 0.3125 -3.429688 0.4375 -3.765625 C 0.570312 -4.109375 0.757812 -4.398438 1 -4.640625 C 1.238281 -4.890625 1.523438 -5.082031 1.859375 -5.21875 C 2.191406 -5.351562 2.5625 -5.421875 2.96875 -5.421875 C 3.375 -5.421875 3.742188 -5.351562 4.078125 -5.21875 C 4.410156 -5.082031 4.695312 -4.890625 4.9375 -4.640625 C 5.175781 -4.398438 5.359375 -4.109375 5.484375 -3.765625 C 5.617188 -3.429688 5.6875 -3.070312 5.6875 -2.6875 Z M 4.671875 -2.6875 C 4.671875 -2.976562 4.628906 -3.238281 4.546875 -3.46875 C 4.472656 -3.707031 4.363281 -3.90625 4.21875 -4.0625 C 4.070312 -4.226562 3.890625 -4.351562 3.671875 -4.4375 C 3.460938 -4.53125 3.226562 -4.578125 2.96875 -4.578125 C 2.707031 -4.578125 2.472656 -4.53125 2.265625 -4.4375 C 2.054688 -4.351562 1.875 -4.226562 1.71875 -4.0625 C 1.570312 -3.90625 1.457031 -3.707031 1.375 -3.46875 C 1.300781 -3.238281 1.265625 -2.976562 1.265625 -2.6875 C 1.265625 -2.382812 1.300781 -2.117188 1.375 -1.890625 C 1.457031 -1.660156 1.570312 -1.460938 1.71875 -1.296875 C 1.875 -1.128906 2.054688 -1.003906 2.265625 -0.921875 C 2.472656 -0.835938 2.707031 -0.796875 2.96875 -0.796875 C 3.226562 -0.796875 3.460938 -0.835938 3.671875 -0.921875 C 3.890625 -1.003906 4.070312 -1.128906 4.21875 -1.296875 C 4.363281 -1.460938 4.472656 -1.660156 4.546875 -1.890625 C 4.628906 -2.117188 4.671875 -2.382812 4.671875 -2.6875 Z M 4.671875 -2.6875 "/></g></g></g><g fill="#2a878f" fill-opacity="1"><g transform="translate(199.477557, 224.704579)"><g><path d="M 1.578125 -2.09375 L 1.578125 0 L 0.578125 0 L 0.578125 -5.359375 L 2.21875 -5.359375 C 2.582031 -5.359375 2.894531 -5.320312 3.15625 -5.25 C 3.414062 -5.175781 3.628906 -5.070312 3.796875 -4.9375 C 3.960938 -4.800781 4.082031 -4.632812 4.15625 -4.4375 C 4.238281 -4.25 4.28125 -4.046875 4.28125 -3.828125 C 4.28125 -3.640625 4.253906 -3.460938 4.203125 -3.296875 C 4.148438 -3.140625 4.070312 -2.992188 3.96875 -2.859375 C 3.863281 -2.734375 3.738281 -2.617188 3.59375 -2.515625 C 3.445312 -2.421875 3.28125 -2.347656 3.09375 -2.296875 C 3.21875 -2.222656 3.328125 -2.117188 3.421875 -1.984375 L 4.765625 0 L 3.859375 0 C 3.773438 0 3.703125 -0.015625 3.640625 -0.046875 C 3.585938 -0.0859375 3.535156 -0.140625 3.484375 -0.203125 L 2.359375 -1.921875 C 2.316406 -1.984375 2.269531 -2.023438 2.21875 -2.046875 C 2.175781 -2.078125 2.101562 -2.09375 2 -2.09375 Z M 1.578125 -2.8125 L 2.203125 -2.8125 C 2.390625 -2.8125 2.550781 -2.832031 2.6875 -2.875 C 2.820312 -2.925781 2.9375 -2.992188 3.03125 -3.078125 C 3.125 -3.160156 3.191406 -3.257812 3.234375 -3.375 C 3.273438 -3.488281 3.296875 -3.613281 3.296875 -3.75 C 3.296875 -4.019531 3.207031 -4.226562 3.03125 -4.375 C 2.851562 -4.519531 2.582031 -4.59375 2.21875 -4.59375 L 1.578125 -4.59375 Z M 1.578125 -2.8125 "/></g></g></g><g fill="#2a878f" fill-opacity="1"><g transform="translate(205.458654, 224.704579)"><g/></g></g><g fill="#2a878f" fill-opacity="1"><g transform="translate(208.007419, 224.704579)"><g><path d="M 5.3125 -2.6875 C 5.3125 -2.289062 5.242188 -1.925781 5.109375 -1.59375 C 4.972656 -1.269531 4.785156 -0.988281 4.546875 -0.75 C 4.316406 -0.507812 4.035156 -0.320312 3.703125 -0.1875 C 3.367188 -0.0625 3 0 2.59375 0 L 0.546875 0 L 0.546875 -5.359375 L 2.59375 -5.359375 C 3 -5.359375 3.367188 -5.289062 3.703125 -5.15625 C 4.035156 -5.03125 4.316406 -4.847656 4.546875 -4.609375 C 4.785156 -4.378906 4.972656 -4.097656 5.109375 -3.765625 C 5.242188 -3.429688 5.3125 -3.070312 5.3125 -2.6875 Z M 4.28125 -2.6875 C 4.28125 -2.976562 4.238281 -3.238281 4.15625 -3.46875 C 4.082031 -3.707031 3.972656 -3.90625 3.828125 -4.0625 C 3.679688 -4.226562 3.503906 -4.351562 3.296875 -4.4375 C 3.085938 -4.53125 2.851562 -4.578125 2.59375 -4.578125 L 1.546875 -4.578125 L 1.546875 -0.796875 L 2.59375 -0.796875 C 2.851562 -0.796875 3.085938 -0.835938 3.296875 -0.921875 C 3.503906 -1.003906 3.679688 -1.128906 3.828125 -1.296875 C 3.972656 -1.460938 4.082031 -1.660156 4.15625 -1.890625 C 4.238281 -2.117188 4.28125 -2.382812 4.28125 -2.6875 Z M 4.28125 -2.6875 "/></g></g></g><g fill="#2a878f" fill-opacity="1"><g transform="translate(214.675726, 224.704579)"><g><path d="M 1.578125 -2.09375 L 1.578125 0 L 0.578125 0 L 0.578125 -5.359375 L 2.21875 -5.359375 C 2.582031 -5.359375 2.894531 -5.320312 3.15625 -5.25 C 3.414062 -5.175781 3.628906 -5.070312 3.796875 -4.9375 C 3.960938 -4.800781 4.082031 -4.632812 4.15625 -4.4375 C 4.238281 -4.25 4.28125 -4.046875 4.28125 -3.828125 C 4.28125 -3.640625 4.253906 -3.460938 4.203125 -3.296875 C 4.148438 -3.140625 4.070312 -2.992188 3.96875 -2.859375 C 3.863281 -2.734375 3.738281 -2.617188 3.59375 -2.515625 C 3.445312 -2.421875 3.28125 -2.347656 3.09375 -2.296875 C 3.21875 -2.222656 3.328125 -2.117188 3.421875 -1.984375 L 4.765625 0 L 3.859375 0 C 3.773438 0 3.703125 -0.015625 3.640625 -0.046875 C 3.585938 -0.0859375 3.535156 -0.140625 3.484375 -0.203125 L 2.359375 -1.921875 C 2.316406 -1.984375 2.269531 -2.023438 2.21875 -2.046875 C 2.175781 -2.078125 2.101562 -2.09375 2 -2.09375 Z M 1.578125 -2.8125 L 2.203125 -2.8125 C 2.390625 -2.8125 2.550781 -2.832031 2.6875 -2.875 C 2.820312 -2.925781 2.9375 -2.992188 3.03125 -3.078125 C 3.125 -3.160156 3.191406 -3.257812 3.234375 -3.375 C 3.273438 -3.488281 3.296875 -3.613281 3.296875 -3.75 C 3.296875 -4.019531 3.207031 -4.226562 3.03125 -4.375 C 2.851562 -4.519531 2.582031 -4.59375 2.21875 -4.59375 L 1.578125 -4.59375 Z M 1.578125 -2.8125 "/></g></g></g><g fill="#2a878f" fill-opacity="1"><g transform="translate(220.656823, 224.704579)"><g><path d="M 1.671875 0 L 0.671875 0 L 0.671875 -5.359375 L 1.671875 -5.359375 Z M 1.671875 0 "/></g></g></g><g fill="#2a878f" fill-opacity="1"><g transform="translate(224.104532, 224.704579)"><g><path d="M 0.015625 -5.359375 L 0.8125 -5.359375 C 0.90625 -5.359375 0.976562 -5.335938 1.03125 -5.296875 C 1.082031 -5.253906 1.125 -5.203125 1.15625 -5.140625 L 2.421875 -1.859375 C 2.460938 -1.753906 2.5 -1.640625 2.53125 -1.515625 C 2.570312 -1.390625 2.609375 -1.253906 2.640625 -1.109375 C 2.703125 -1.398438 2.773438 -1.648438 2.859375 -1.859375 L 4.109375 -5.140625 C 4.140625 -5.191406 4.179688 -5.238281 4.234375 -5.28125 C 4.285156 -5.332031 4.359375 -5.359375 4.453125 -5.359375 L 5.25 -5.359375 L 3.078125 0 L 2.1875 0 Z M 0.015625 -5.359375 "/></g></g></g><g fill="#2a878f" fill-opacity="1"><g transform="translate(230.494242, 224.704579)"><g><path d="M 1.671875 0 L 0.671875 0 L 0.671875 -5.359375 L 1.671875 -5.359375 Z M 1.671875 0 "/></g></g></g><g fill="#2a878f" fill-opacity="1"><g transform="translate(233.941952, 224.704579)"><g><path d="M 1.0625 -5.359375 C 1.101562 -5.359375 1.140625 -5.359375 1.171875 -5.359375 C 1.203125 -5.359375 1.226562 -5.351562 1.25 -5.34375 C 1.28125 -5.332031 1.304688 -5.316406 1.328125 -5.296875 C 1.347656 -5.273438 1.375 -5.242188 1.40625 -5.203125 L 4.21875 -1.625 C 4.207031 -1.707031 4.195312 -1.789062 4.1875 -1.875 C 4.1875 -1.957031 4.1875 -2.035156 4.1875 -2.109375 L 4.1875 -5.359375 L 5.0625 -5.359375 L 5.0625 0 L 4.546875 0 C 4.472656 0 4.410156 -0.0078125 4.359375 -0.03125 C 4.304688 -0.0625 4.253906 -0.109375 4.203125 -0.171875 L 1.40625 -3.75 C 1.40625 -3.664062 1.40625 -3.582031 1.40625 -3.5 C 1.414062 -3.425781 1.421875 -3.359375 1.421875 -3.296875 L 1.421875 0 L 0.546875 0 L 0.546875 -5.359375 Z M 1.0625 -5.359375 "/></g></g></g><g fill="#2a878f" fill-opacity="1"><g transform="translate(240.673413, 224.704579)"><g><path d="M 3 -0.734375 C 3.226562 -0.734375 3.425781 -0.753906 3.59375 -0.796875 C 3.757812 -0.835938 3.921875 -0.894531 4.078125 -0.96875 L 4.078125 -1.9375 L 3.40625 -1.9375 C 3.332031 -1.9375 3.273438 -1.953125 3.234375 -1.984375 C 3.203125 -2.023438 3.1875 -2.070312 3.1875 -2.125 L 3.1875 -2.6875 L 4.96875 -2.6875 L 4.96875 -0.515625 C 4.832031 -0.421875 4.691406 -0.335938 4.546875 -0.265625 C 4.398438 -0.191406 4.242188 -0.128906 4.078125 -0.078125 C 3.910156 -0.0351562 3.734375 -0.00390625 3.546875 0.015625 C 3.359375 0.046875 3.148438 0.0625 2.921875 0.0625 C 2.535156 0.0625 2.175781 -0.00390625 1.84375 -0.140625 C 1.519531 -0.273438 1.238281 -0.460938 1 -0.703125 C 0.757812 -0.953125 0.570312 -1.242188 0.4375 -1.578125 C 0.300781 -1.910156 0.234375 -2.28125 0.234375 -2.6875 C 0.234375 -3.082031 0.296875 -3.445312 0.421875 -3.78125 C 0.554688 -4.125 0.742188 -4.414062 0.984375 -4.65625 C 1.222656 -4.90625 1.515625 -5.09375 1.859375 -5.21875 C 2.203125 -5.351562 2.585938 -5.421875 3.015625 -5.421875 C 3.453125 -5.421875 3.832031 -5.351562 4.15625 -5.21875 C 4.476562 -5.09375 4.75 -4.925781 4.96875 -4.71875 L 4.6875 -4.265625 C 4.625 -4.179688 4.546875 -4.140625 4.453125 -4.140625 C 4.398438 -4.140625 4.34375 -4.15625 4.28125 -4.1875 C 4.195312 -4.238281 4.113281 -4.285156 4.03125 -4.328125 C 3.945312 -4.378906 3.851562 -4.421875 3.75 -4.453125 C 3.65625 -4.492188 3.546875 -4.523438 3.421875 -4.546875 C 3.296875 -4.566406 3.148438 -4.578125 2.984375 -4.578125 C 2.722656 -4.578125 2.484375 -4.53125 2.265625 -4.4375 C 2.054688 -4.351562 1.875 -4.226562 1.71875 -4.0625 C 1.570312 -3.894531 1.457031 -3.691406 1.375 -3.453125 C 1.289062 -3.222656 1.25 -2.96875 1.25 -2.6875 C 1.25 -2.375 1.289062 -2.097656 1.375 -1.859375 C 1.46875 -1.617188 1.59375 -1.414062 1.75 -1.25 C 1.90625 -1.082031 2.085938 -0.953125 2.296875 -0.859375 C 2.515625 -0.773438 2.75 -0.734375 3 -0.734375 Z M 3 -0.734375 "/></g></g></g><g fill="#2a878f" fill-opacity="1"><g transform="translate(247.159704, 224.704579)"><g/></g></g><g fill="#2a878f" fill-opacity="1"><g transform="translate(249.70847, 224.704579)"><g><path d="M 3.421875 -4.390625 C 3.390625 -4.335938 3.351562 -4.296875 3.3125 -4.265625 C 3.28125 -4.242188 3.238281 -4.234375 3.1875 -4.234375 C 3.144531 -4.234375 3.09375 -4.253906 3.03125 -4.296875 C 2.96875 -4.335938 2.894531 -4.378906 2.8125 -4.421875 C 2.726562 -4.472656 2.628906 -4.515625 2.515625 -4.546875 C 2.398438 -4.585938 2.265625 -4.609375 2.109375 -4.609375 C 1.972656 -4.609375 1.851562 -4.59375 1.75 -4.5625 C 1.644531 -4.53125 1.554688 -4.484375 1.484375 -4.421875 C 1.421875 -4.359375 1.367188 -4.285156 1.328125 -4.203125 C 1.296875 -4.117188 1.28125 -4.03125 1.28125 -3.9375 C 1.28125 -3.8125 1.316406 -3.707031 1.390625 -3.625 C 1.460938 -3.539062 1.554688 -3.46875 1.671875 -3.40625 C 1.785156 -3.34375 1.914062 -3.285156 2.0625 -3.234375 C 2.21875 -3.191406 2.367188 -3.144531 2.515625 -3.09375 C 2.671875 -3.039062 2.820312 -2.976562 2.96875 -2.90625 C 3.125 -2.84375 3.257812 -2.753906 3.375 -2.640625 C 3.488281 -2.535156 3.582031 -2.40625 3.65625 -2.25 C 3.726562 -2.09375 3.765625 -1.90625 3.765625 -1.6875 C 3.765625 -1.4375 3.722656 -1.207031 3.640625 -1 C 3.554688 -0.789062 3.429688 -0.609375 3.265625 -0.453125 C 3.109375 -0.296875 2.914062 -0.171875 2.6875 -0.078125 C 2.457031 0.015625 2.191406 0.0625 1.890625 0.0625 C 1.722656 0.0625 1.554688 0.0390625 1.390625 0 C 1.222656 -0.03125 1.0625 -0.0703125 0.90625 -0.125 C 0.757812 -0.1875 0.617188 -0.257812 0.484375 -0.34375 C 0.359375 -0.4375 0.242188 -0.535156 0.140625 -0.640625 L 0.421875 -1.125 C 0.453125 -1.15625 0.484375 -1.179688 0.515625 -1.203125 C 0.554688 -1.234375 0.601562 -1.25 0.65625 -1.25 C 0.71875 -1.25 0.78125 -1.222656 0.84375 -1.171875 C 0.914062 -1.117188 1 -1.0625 1.09375 -1 C 1.195312 -0.9375 1.3125 -0.878906 1.4375 -0.828125 C 1.570312 -0.773438 1.734375 -0.75 1.921875 -0.75 C 2.210938 -0.75 2.4375 -0.816406 2.59375 -0.953125 C 2.75 -1.085938 2.828125 -1.285156 2.828125 -1.546875 C 2.828125 -1.679688 2.789062 -1.789062 2.71875 -1.875 C 2.644531 -1.96875 2.550781 -2.046875 2.4375 -2.109375 C 2.320312 -2.171875 2.1875 -2.222656 2.03125 -2.265625 C 1.882812 -2.304688 1.734375 -2.347656 1.578125 -2.390625 C 1.429688 -2.441406 1.28125 -2.503906 1.125 -2.578125 C 0.976562 -2.648438 0.847656 -2.738281 0.734375 -2.84375 C 0.617188 -2.957031 0.523438 -3.097656 0.453125 -3.265625 C 0.378906 -3.429688 0.34375 -3.640625 0.34375 -3.890625 C 0.34375 -4.078125 0.378906 -4.265625 0.453125 -4.453125 C 0.535156 -4.640625 0.648438 -4.804688 0.796875 -4.953125 C 0.953125 -5.097656 1.140625 -5.210938 1.359375 -5.296875 C 1.578125 -5.378906 1.828125 -5.421875 2.109375 -5.421875 C 2.421875 -5.421875 2.707031 -5.367188 2.96875 -5.265625 C 3.238281 -5.171875 3.46875 -5.035156 3.65625 -4.859375 Z M 3.421875 -4.390625 "/></g></g></g><g fill="#2a878f" fill-opacity="1"><g transform="translate(254.809198, 224.704579)"><g><path d="M 4.234375 -1.265625 C 4.285156 -1.265625 4.332031 -1.242188 4.375 -1.203125 L 4.765625 -0.78125 C 4.546875 -0.507812 4.273438 -0.300781 3.953125 -0.15625 C 3.640625 -0.0078125 3.257812 0.0625 2.8125 0.0625 C 2.414062 0.0625 2.054688 -0.00390625 1.734375 -0.140625 C 1.421875 -0.273438 1.148438 -0.460938 0.921875 -0.703125 C 0.703125 -0.953125 0.53125 -1.242188 0.40625 -1.578125 C 0.289062 -1.910156 0.234375 -2.28125 0.234375 -2.6875 C 0.234375 -3.082031 0.296875 -3.445312 0.421875 -3.78125 C 0.554688 -4.125 0.742188 -4.414062 0.984375 -4.65625 C 1.234375 -4.894531 1.523438 -5.082031 1.859375 -5.21875 C 2.203125 -5.351562 2.578125 -5.421875 2.984375 -5.421875 C 3.378906 -5.421875 3.722656 -5.359375 4.015625 -5.234375 C 4.316406 -5.109375 4.578125 -4.941406 4.796875 -4.734375 L 4.453125 -4.265625 C 4.441406 -4.234375 4.421875 -4.207031 4.390625 -4.1875 C 4.359375 -4.164062 4.3125 -4.15625 4.25 -4.15625 C 4.195312 -4.15625 4.140625 -4.175781 4.078125 -4.21875 C 4.023438 -4.257812 3.953125 -4.304688 3.859375 -4.359375 C 3.765625 -4.410156 3.644531 -4.457031 3.5 -4.5 C 3.363281 -4.550781 3.1875 -4.578125 2.96875 -4.578125 C 2.71875 -4.578125 2.488281 -4.53125 2.28125 -4.4375 C 2.070312 -4.351562 1.890625 -4.226562 1.734375 -4.0625 C 1.578125 -3.90625 1.457031 -3.707031 1.375 -3.46875 C 1.289062 -3.238281 1.25 -2.976562 1.25 -2.6875 C 1.25 -2.382812 1.289062 -2.113281 1.375 -1.875 C 1.457031 -1.644531 1.570312 -1.445312 1.71875 -1.28125 C 1.863281 -1.125 2.035156 -1 2.234375 -0.90625 C 2.429688 -0.820312 2.644531 -0.78125 2.875 -0.78125 C 3.007812 -0.78125 3.132812 -0.785156 3.25 -0.796875 C 3.363281 -0.816406 3.460938 -0.84375 3.546875 -0.875 C 3.640625 -0.90625 3.726562 -0.945312 3.8125 -1 C 3.894531 -1.050781 3.976562 -1.113281 4.0625 -1.1875 C 4.082031 -1.207031 4.109375 -1.222656 4.140625 -1.234375 C 4.171875 -1.253906 4.203125 -1.265625 4.234375 -1.265625 Z M 4.234375 -1.265625 "/></g></g></g><g fill="#2a878f" fill-opacity="1"><g transform="translate(260.905452, 224.704579)"><g><path d="M 5.0625 0 L 4.0625 0 L 4.0625 -2.34375 L 1.546875 -2.34375 L 1.546875 0 L 0.546875 0 L 0.546875 -5.359375 L 1.546875 -5.359375 L 1.546875 -3.0625 L 4.0625 -3.0625 L 4.0625 -5.359375 L 5.0625 -5.359375 Z M 5.0625 0 "/></g></g></g><g fill="#2a878f" fill-opacity="1"><g transform="translate(267.636913, 224.704579)"><g><path d="M 5.6875 -2.6875 C 5.6875 -2.289062 5.617188 -1.925781 5.484375 -1.59375 C 5.359375 -1.257812 5.175781 -0.96875 4.9375 -0.71875 C 4.695312 -0.476562 4.410156 -0.285156 4.078125 -0.140625 C 3.742188 -0.00390625 3.375 0.0625 2.96875 0.0625 C 2.5625 0.0625 2.191406 -0.00390625 1.859375 -0.140625 C 1.523438 -0.285156 1.238281 -0.476562 1 -0.71875 C 0.757812 -0.96875 0.570312 -1.257812 0.4375 -1.59375 C 0.3125 -1.925781 0.25 -2.289062 0.25 -2.6875 C 0.25 -3.070312 0.3125 -3.429688 0.4375 -3.765625 C 0.570312 -4.109375 0.757812 -4.398438 1 -4.640625 C 1.238281 -4.890625 1.523438 -5.082031 1.859375 -5.21875 C 2.191406 -5.351562 2.5625 -5.421875 2.96875 -5.421875 C 3.375 -5.421875 3.742188 -5.351562 4.078125 -5.21875 C 4.410156 -5.082031 4.695312 -4.890625 4.9375 -4.640625 C 5.175781 -4.398438 5.359375 -4.109375 5.484375 -3.765625 C 5.617188 -3.429688 5.6875 -3.070312 5.6875 -2.6875 Z M 4.671875 -2.6875 C 4.671875 -2.976562 4.628906 -3.238281 4.546875 -3.46875 C 4.472656 -3.707031 4.363281 -3.90625 4.21875 -4.0625 C 4.070312 -4.226562 3.890625 -4.351562 3.671875 -4.4375 C 3.460938 -4.53125 3.226562 -4.578125 2.96875 -4.578125 C 2.707031 -4.578125 2.472656 -4.53125 2.265625 -4.4375 C 2.054688 -4.351562 1.875 -4.226562 1.71875 -4.0625 C 1.570312 -3.90625 1.457031 -3.707031 1.375 -3.46875 C 1.300781 -3.238281 1.265625 -2.976562 1.265625 -2.6875 C 1.265625 -2.382812 1.300781 -2.117188 1.375 -1.890625 C 1.457031 -1.660156 1.570312 -1.460938 1.71875 -1.296875 C 1.875 -1.128906 2.054688 -1.003906 2.265625 -0.921875 C 2.472656 -0.835938 2.707031 -0.796875 2.96875 -0.796875 C 3.226562 -0.796875 3.460938 -0.835938 3.671875 -0.921875 C 3.890625 -1.003906 4.070312 -1.128906 4.21875 -1.296875 C 4.363281 -1.460938 4.472656 -1.660156 4.546875 -1.890625 C 4.628906 -2.117188 4.671875 -2.382812 4.671875 -2.6875 Z M 4.671875 -2.6875 "/></g></g></g><g fill="#2a878f" fill-opacity="1"><g transform="translate(274.691549, 224.704579)"><g><path d="M 5.6875 -2.6875 C 5.6875 -2.289062 5.617188 -1.925781 5.484375 -1.59375 C 5.359375 -1.257812 5.175781 -0.96875 4.9375 -0.71875 C 4.695312 -0.476562 4.410156 -0.285156 4.078125 -0.140625 C 3.742188 -0.00390625 3.375 0.0625 2.96875 0.0625 C 2.5625 0.0625 2.191406 -0.00390625 1.859375 -0.140625 C 1.523438 -0.285156 1.238281 -0.476562 1 -0.71875 C 0.757812 -0.96875 0.570312 -1.257812 0.4375 -1.59375 C 0.3125 -1.925781 0.25 -2.289062 0.25 -2.6875 C 0.25 -3.070312 0.3125 -3.429688 0.4375 -3.765625 C 0.570312 -4.109375 0.757812 -4.398438 1 -4.640625 C 1.238281 -4.890625 1.523438 -5.082031 1.859375 -5.21875 C 2.191406 -5.351562 2.5625 -5.421875 2.96875 -5.421875 C 3.375 -5.421875 3.742188 -5.351562 4.078125 -5.21875 C 4.410156 -5.082031 4.695312 -4.890625 4.9375 -4.640625 C 5.175781 -4.398438 5.359375 -4.109375 5.484375 -3.765625 C 5.617188 -3.429688 5.6875 -3.070312 5.6875 -2.6875 Z M 4.671875 -2.6875 C 4.671875 -2.976562 4.628906 -3.238281 4.546875 -3.46875 C 4.472656 -3.707031 4.363281 -3.90625 4.21875 -4.0625 C 4.070312 -4.226562 3.890625 -4.351562 3.671875 -4.4375 C 3.460938 -4.53125 3.226562 -4.578125 2.96875 -4.578125 C 2.707031 -4.578125 2.472656 -4.53125 2.265625 -4.4375 C 2.054688 -4.351562 1.875 -4.226562 1.71875 -4.0625 C 1.570312 -3.90625 1.457031 -3.707031 1.375 -3.46875 C 1.300781 -3.238281 1.265625 -2.976562 1.265625 -2.6875 C 1.265625 -2.382812 1.300781 -2.117188 1.375 -1.890625 C 1.457031 -1.660156 1.570312 -1.460938 1.71875 -1.296875 C 1.875 -1.128906 2.054688 -1.003906 2.265625 -0.921875 C 2.472656 -0.835938 2.707031 -0.796875 2.96875 -0.796875 C 3.226562 -0.796875 3.460938 -0.835938 3.671875 -0.921875 C 3.890625 -1.003906 4.070312 -1.128906 4.21875 -1.296875 C 4.363281 -1.460938 4.472656 -1.660156 4.546875 -1.890625 C 4.628906 -2.117188 4.671875 -2.382812 4.671875 -2.6875 Z M 4.671875 -2.6875 "/></g></g></g><g fill="#2a878f" fill-opacity="1"><g transform="translate(281.746186, 224.704579)"><g><path d="M 1.546875 -0.828125 L 3.6875 -0.828125 L 3.6875 0 L 0.546875 0 L 0.546875 -5.359375 L 1.546875 -5.359375 Z M 1.546875 -0.828125 "/></g></g></g><g fill="#2a878f" fill-opacity="1"><g transform="translate(286.702038, 224.704579)"><g><path d="M 3.421875 -4.390625 C 3.390625 -4.335938 3.351562 -4.296875 3.3125 -4.265625 C 3.28125 -4.242188 3.238281 -4.234375 3.1875 -4.234375 C 3.144531 -4.234375 3.09375 -4.253906 3.03125 -4.296875 C 2.96875 -4.335938 2.894531 -4.378906 2.8125 -4.421875 C 2.726562 -4.472656 2.628906 -4.515625 2.515625 -4.546875 C 2.398438 -4.585938 2.265625 -4.609375 2.109375 -4.609375 C 1.972656 -4.609375 1.851562 -4.59375 1.75 -4.5625 C 1.644531 -4.53125 1.554688 -4.484375 1.484375 -4.421875 C 1.421875 -4.359375 1.367188 -4.285156 1.328125 -4.203125 C 1.296875 -4.117188 1.28125 -4.03125 1.28125 -3.9375 C 1.28125 -3.8125 1.316406 -3.707031 1.390625 -3.625 C 1.460938 -3.539062 1.554688 -3.46875 1.671875 -3.40625 C 1.785156 -3.34375 1.914062 -3.285156 2.0625 -3.234375 C 2.21875 -3.191406 2.367188 -3.144531 2.515625 -3.09375 C 2.671875 -3.039062 2.820312 -2.976562 2.96875 -2.90625 C 3.125 -2.84375 3.257812 -2.753906 3.375 -2.640625 C 3.488281 -2.535156 3.582031 -2.40625 3.65625 -2.25 C 3.726562 -2.09375 3.765625 -1.90625 3.765625 -1.6875 C 3.765625 -1.4375 3.722656 -1.207031 3.640625 -1 C 3.554688 -0.789062 3.429688 -0.609375 3.265625 -0.453125 C 3.109375 -0.296875 2.914062 -0.171875 2.6875 -0.078125 C 2.457031 0.015625 2.191406 0.0625 1.890625 0.0625 C 1.722656 0.0625 1.554688 0.0390625 1.390625 0 C 1.222656 -0.03125 1.0625 -0.0703125 0.90625 -0.125 C 0.757812 -0.1875 0.617188 -0.257812 0.484375 -0.34375 C 0.359375 -0.4375 0.242188 -0.535156 0.140625 -0.640625 L 0.421875 -1.125 C 0.453125 -1.15625 0.484375 -1.179688 0.515625 -1.203125 C 0.554688 -1.234375 0.601562 -1.25 0.65625 -1.25 C 0.71875 -1.25 0.78125 -1.222656 0.84375 -1.171875 C 0.914062 -1.117188 1 -1.0625 1.09375 -1 C 1.195312 -0.9375 1.3125 -0.878906 1.4375 -0.828125 C 1.570312 -0.773438 1.734375 -0.75 1.921875 -0.75 C 2.210938 -0.75 2.4375 -0.816406 2.59375 -0.953125 C 2.75 -1.085938 2.828125 -1.285156 2.828125 -1.546875 C 2.828125 -1.679688 2.789062 -1.789062 2.71875 -1.875 C 2.644531 -1.96875 2.550781 -2.046875 2.4375 -2.109375 C 2.320312 -2.171875 2.1875 -2.222656 2.03125 -2.265625 C 1.882812 -2.304688 1.734375 -2.347656 1.578125 -2.390625 C 1.429688 -2.441406 1.28125 -2.503906 1.125 -2.578125 C 0.976562 -2.648438 0.847656 -2.738281 0.734375 -2.84375 C 0.617188 -2.957031 0.523438 -3.097656 0.453125 -3.265625 C 0.378906 -3.429688 0.34375 -3.640625 0.34375 -3.890625 C 0.34375 -4.078125 0.378906 -4.265625 0.453125 -4.453125 C 0.535156 -4.640625 0.648438 -4.804688 0.796875 -4.953125 C 0.953125 -5.097656 1.140625 -5.210938 1.359375 -5.296875 C 1.578125 -5.378906 1.828125 -5.421875 2.109375 -5.421875 C 2.421875 -5.421875 2.707031 -5.367188 2.96875 -5.265625 C 3.238281 -5.171875 3.46875 -5.035156 3.65625 -4.859375 Z M 3.421875 -4.390625 "/></g></g></g><g fill="#1d1d1b" fill-opacity="1"><g transform="translate(142.052441, 181.315066)"><g><path d="M 2.5625 0 L 2.5625 -33.40625 L 24.6875 -33.40625 C 28.550781 -33.40625 31.851562 -33.097656 34.59375 -32.484375 C 37.332031 -31.867188 39.585938 -31.035156 41.359375 -29.984375 C 43.140625 -28.941406 44.53125 -27.742188 45.53125 -26.390625 C 46.539062 -25.046875 47.242188 -23.617188 47.640625 -22.109375 C 48.046875 -20.597656 48.25 -19.09375 48.25 -17.59375 L 48.25 -16.25 C 48.25 -14.8125 48.054688 -13.335938 47.671875 -11.828125 C 47.285156 -10.316406 46.597656 -8.859375 45.609375 -7.453125 C 44.617188 -6.046875 43.234375 -4.78125 41.453125 -3.65625 C 39.671875 -2.53125 37.414062 -1.640625 34.6875 -0.984375 C 31.96875 -0.328125 28.648438 0 24.734375 0 Z M 13.015625 -25.5 L 13.015625 -8.03125 L 23.875 -8.03125 C 26.84375 -8.03125 29.21875 -8.3125 31 -8.875 C 32.78125 -9.445312 34.125 -10.175781 35.03125 -11.0625 C 35.945312 -11.945312 36.550781 -12.890625 36.84375 -13.890625 C 37.144531 -14.890625 37.296875 -15.8125 37.296875 -16.65625 L 37.296875 -16.921875 C 37.296875 -17.785156 37.15625 -18.710938 36.875 -19.703125 C 36.59375 -20.691406 36 -21.617188 35.09375 -22.484375 C 34.195312 -23.359375 32.859375 -24.078125 31.078125 -24.640625 C 29.304688 -25.210938 26.90625 -25.5 23.875 -25.5 Z M 13.015625 -25.5 "/></g></g></g><g fill="#1d1d1b" fill-opacity="1"><g transform="translate(190.884893, 181.315066)"><g><path d="M 13.015625 -25.8125 L 13.015625 -19.265625 L 28.859375 -19.265625 C 30.359375 -19.265625 31.4375 -19.578125 32.09375 -20.203125 C 32.75 -20.828125 33.078125 -21.601562 33.078125 -22.53125 L 33.078125 -22.578125 C 33.078125 -23.441406 32.753906 -24.195312 32.109375 -24.84375 C 31.472656 -25.488281 30.390625 -25.8125 28.859375 -25.8125 Z M 13.015625 -11.84375 L 13.015625 0 L 2.5625 0 L 2.5625 -33.40625 L 29.5 -33.40625 C 33.207031 -33.40625 36.113281 -33.015625 38.21875 -32.234375 C 40.332031 -31.453125 41.820312 -30.410156 42.6875 -29.109375 C 43.5625 -27.804688 44 -26.347656 44 -24.734375 L 44 -24.203125 C 44 -23.003906 43.78125 -21.976562 43.34375 -21.125 C 42.90625 -20.269531 42.359375 -19.566406 41.703125 -19.015625 C 41.046875 -18.460938 40.363281 -18.007812 39.65625 -17.65625 C 38.957031 -17.3125 38.335938 -17.050781 37.796875 -16.875 C 38.929688 -16.550781 39.976562 -16.054688 40.9375 -15.390625 C 41.894531 -14.734375 42.664062 -13.894531 43.25 -12.875 C 43.832031 -11.863281 44.125 -10.640625 44.125 -9.203125 L 44.125 -4.3125 C 44.125 -2.96875 44.191406 -2.015625 44.328125 -1.453125 C 44.460938 -0.898438 44.601562 -0.488281 44.75 -0.21875 L 44.75 0 L 34.109375 0 C 33.960938 -0.207031 33.84375 -0.460938 33.75 -0.765625 C 33.664062 -1.066406 33.625 -1.515625 33.625 -2.109375 L 33.625 -5.96875 C 33.625 -8 33.109375 -9.484375 32.078125 -10.421875 C 31.046875 -11.367188 29.242188 -11.84375 26.671875 -11.84375 Z M 13.015625 -11.84375 "/></g></g></g><g fill="#1d1d1b" fill-opacity="1"><g transform="translate(236.126714, 181.315066)"><g><path d="M 13.015625 -33.40625 L 13.015625 0 L 2.5625 0 L 2.5625 -33.40625 Z M 13.015625 -33.40625 "/></g></g></g><g fill="#1d1d1b" fill-opacity="1"><g transform="translate(251.252164, 181.315066)"><g><path d="M 29.859375 0 L 16.828125 0 L -0.53125 -33.40625 L 11.3125 -33.40625 L 23.609375 -8.84375 L 35.15625 -33.40625 L 46.015625 -33.40625 Z M 29.859375 0 "/></g></g></g><g fill="#1d1d1b" fill-opacity="1"><g transform="translate(296.269579, 181.315066)"><g><path d="M 2.5625 -33.40625 L 37.75 -33.40625 L 37.75 -25.8125 L 12.890625 -25.8125 L 12.890625 -20.875 L 37.171875 -20.875 L 37.171875 -13.25 L 12.890625 -13.25 L 12.890625 -7.765625 L 38.203125 -7.765625 L 38.203125 0 L 2.5625 0 Z M 2.5625 -33.40625 "/></g></g></g><g fill="#1d1d1b" fill-opacity="1"><g transform="translate(142.052441, 218.065063)"><g><path d="M 2.5625 -33.40625 L 37.078125 -33.40625 L 37.078125 -25.8125 L 12.96875 -25.8125 L 12.96875 -20.875 L 36.5 -20.875 L 36.5 -13.25 L 12.96875 -13.25 L 12.96875 0 L 2.5625 0 Z M 2.5625 -33.40625 "/></g></g></g><g fill="#1d1d1b" fill-opacity="1"><g transform="translate(180.516961, 218.065063)"><g><path d="M 2.5625 -33.40625 L 13.015625 -33.40625 L 13.015625 -8.3125 L 36.234375 -8.3125 L 36.234375 0 L 2.5625 0 Z M 2.5625 -33.40625 "/></g></g></g><g fill="#1d1d1b" fill-opacity="1"><g transform="translate(217.59012, 218.065063)"><g><path d="M 24.734375 -33.984375 L 26.671875 -33.984375 C 30.859375 -33.984375 34.363281 -33.609375 37.1875 -32.859375 C 40.019531 -32.109375 42.296875 -31.117188 44.015625 -29.890625 C 45.734375 -28.671875 47.035156 -27.328125 47.921875 -25.859375 C 48.804688 -24.390625 49.394531 -22.921875 49.6875 -21.453125 C 49.988281 -19.992188 50.140625 -18.664062 50.140625 -17.46875 L 50.140625 -16.109375 C 50.140625 -14.941406 49.988281 -13.617188 49.6875 -12.140625 C 49.394531 -10.660156 48.804688 -9.179688 47.921875 -7.703125 C 47.035156 -6.222656 45.734375 -4.851562 44.015625 -3.59375 C 42.296875 -2.332031 40.03125 -1.320312 37.21875 -0.5625 C 34.40625 0.195312 30.890625 0.578125 26.671875 0.578125 L 24.734375 0.578125 C 21.203125 0.578125 18.164062 0.3125 15.625 -0.21875 C 13.082031 -0.757812 10.945312 -1.492188 9.21875 -2.421875 C 7.5 -3.347656 6.109375 -4.394531 5.046875 -5.5625 C 3.984375 -6.726562 3.175781 -7.929688 2.625 -9.171875 C 2.070312 -10.421875 1.695312 -11.644531 1.5 -12.84375 C 1.3125 -14.039062 1.21875 -15.128906 1.21875 -16.109375 L 1.21875 -17.46875 C 1.21875 -18.664062 1.363281 -19.992188 1.65625 -21.453125 C 1.957031 -22.921875 2.539062 -24.390625 3.40625 -25.859375 C 4.28125 -27.328125 5.578125 -28.671875 7.296875 -29.890625 C 9.015625 -31.117188 11.296875 -32.109375 14.140625 -32.859375 C 16.984375 -33.609375 20.515625 -33.984375 24.734375 -33.984375 Z M 39.1875 -16.515625 L 39.1875 -17.140625 C 39.1875 -18.097656 39.003906 -19.085938 38.640625 -20.109375 C 38.285156 -21.128906 37.628906 -22.078125 36.671875 -22.953125 C 35.710938 -23.835938 34.347656 -24.550781 32.578125 -25.09375 C 30.816406 -25.632812 28.515625 -25.90625 25.671875 -25.90625 C 22.804688 -25.90625 20.484375 -25.632812 18.703125 -25.09375 C 16.921875 -24.550781 15.554688 -23.835938 14.609375 -22.953125 C 13.671875 -22.078125 13.03125 -21.128906 12.6875 -20.109375 C 12.34375 -19.085938 12.171875 -18.097656 12.171875 -17.140625 L 12.171875 -16.609375 C 12.171875 -15.648438 12.347656 -14.644531 12.703125 -13.59375 C 13.066406 -12.550781 13.722656 -11.566406 14.671875 -10.640625 C 15.628906 -9.710938 17 -8.960938 18.78125 -8.390625 C 20.5625 -7.828125 22.859375 -7.546875 25.671875 -7.546875 C 28.484375 -7.546875 30.769531 -7.828125 32.53125 -8.390625 C 34.300781 -8.960938 35.664062 -9.695312 36.625 -10.59375 C 37.582031 -11.488281 38.25 -12.457031 38.625 -13.5 C 39 -14.550781 39.1875 -15.554688 39.1875 -16.515625 Z M 39.1875 -16.515625 "/></g></g></g><g fill="#1d1d1b" fill-opacity="1"><g transform="translate(268.487194, 218.065063)"><g><path d="M 24.734375 0 L 13.203125 0 L -0.53125 -33.40625 L 10.859375 -33.40625 L 19.484375 -10.421875 L 26.9375 -33.40625 L 38.0625 -33.40625 L 45.703125 -11.09375 L 54.140625 -33.40625 L 64.421875 -33.40625 L 50.90625 0 L 40.359375 0 L 32.328125 -22.359375 Z M 24.734375 0 "/></g></g></g></svg>