<svg xmlns="http://www.w3.org/2000/svg" xmlns:xlink="http://www.w3.org/1999/xlink" width="500" zoomAndPan="magnify" viewBox="0 0 375 374.999991" height="500" preserveAspectRatio="xMidYMid meet" version="1.0"><defs><g/><clipPath id="a97a4cb2ab"><path d="M 57.394531 148.125 L 140.921875 148.125 L 140.921875 162.621094 L 57.394531 162.621094 Z M 57.394531 148.125 " clip-rule="nonzero"/></clipPath><clipPath id="2c1a701bf9"><path d="M 138.140625 162.621094 L 60.128906 162.621094 C 58.625 162.621094 57.394531 161.394531 57.394531 159.890625 L 57.394531 150.855469 C 57.394531 149.351562 58.625 148.125 60.128906 148.125 L 138.140625 148.125 C 139.648438 148.125 140.875 149.351562 140.875 150.855469 L 140.875 159.890625 C 140.875 161.394531 139.648438 162.621094 138.140625 162.621094 Z M 138.140625 162.621094 " clip-rule="nonzero"/></clipPath><clipPath id="3df1f40461"><path d="M 63.753906 169.054688 L 129.953125 169.054688 L 129.953125 183.550781 L 63.753906 183.550781 Z M 63.753906 169.054688 " clip-rule="nonzero"/></clipPath><clipPath id="8bda048317"><path d="M 127.199219 183.550781 L 66.484375 183.550781 C 64.980469 183.550781 63.753906 182.324219 63.753906 180.816406 L 63.753906 171.785156 C 63.753906 170.28125 64.980469 169.054688 66.484375 169.054688 L 127.199219 169.054688 C 128.703125 169.054688 129.929688 170.28125 129.929688 171.785156 L 129.929688 180.816406 C 129.929688 182.324219 128.703125 183.550781 127.199219 183.550781 Z M 127.199219 183.550781 " clip-rule="nonzero"/></clipPath><clipPath id="9bae0d6530"><path d="M 63.753906 190.632812 L 112.851562 190.632812 L 112.851562 205.128906 L 63.753906 205.128906 Z M 63.753906 190.632812 " clip-rule="nonzero"/></clipPath><clipPath id="5cc2d7c6fd"><path d="M 110.097656 205.128906 L 66.484375 205.128906 C 64.980469 205.128906 63.753906 203.902344 63.753906 202.394531 L 63.753906 193.363281 C 63.753906 191.859375 64.980469 190.632812 66.484375 190.632812 L 110.097656 190.632812 C 111.605469 190.632812 112.832031 191.859375 112.832031 193.363281 L 112.832031 202.394531 C 112.832031 203.902344 111.605469 205.128906 110.097656 205.128906 Z M 110.097656 205.128906 " clip-rule="nonzero"/></clipPath><clipPath id="a5d479a40f"><path d="M 57.394531 212.378906 L 102.585938 212.378906 L 102.585938 226.875 L 57.394531 226.875 Z M 57.394531 212.378906 " clip-rule="nonzero"/></clipPath><clipPath id="4b7fb73630"><path d="M 99.839844 226.875 L 60.128906 226.875 C 58.625 226.875 57.394531 225.648438 57.394531 224.144531 L 57.394531 215.109375 C 57.394531 213.605469 58.625 212.378906 60.128906 212.378906 L 99.839844 212.378906 C 101.34375 212.378906 102.570312 213.605469 102.570312 215.109375 L 102.570312 224.144531 C 102.570312 225.648438 101.34375 226.875 99.839844 226.875 Z M 99.839844 226.875 " clip-rule="nonzero"/></clipPath><clipPath id="e9a7bfc5bf"><path d="M 21.417969 148.125 L 93.476562 148.125 L 93.476562 226.984375 L 21.417969 226.984375 Z M 21.417969 148.125 " clip-rule="nonzero"/></clipPath><clipPath id="4d0b0347da"><path d="M 21.417969 176 L 52 176 L 52 200 L 21.417969 200 Z M 21.417969 176 " clip-rule="nonzero"/></clipPath></defs><rect x="-37.5" width="450" fill="#ffffff" y="-37.499999" height="449.999989" fill-opacity="1"/><g clip-path="url(#a97a4cb2ab)"><g clip-path="url(#2c1a701bf9)"><path fill="#44d9e6" d="M 57.394531 148.125 L 140.867188 148.125 L 140.867188 162.621094 L 57.394531 162.621094 Z M 57.394531 148.125 " fill-opacity="1" fill-rule="nonzero"/></g></g><g clip-path="url(#3df1f40461)"><g clip-path="url(#8bda048317)"><path fill="#44d9e6" d="M 63.753906 169.054688 L 129.953125 169.054688 L 129.953125 183.550781 L 63.753906 183.550781 Z M 63.753906 169.054688 " fill-opacity="1" fill-rule="nonzero"/></g></g><g clip-path="url(#9bae0d6530)"><g clip-path="url(#5cc2d7c6fd)"><path fill="#44d9e6" d="M 63.753906 190.632812 L 112.851562 190.632812 L 112.851562 205.128906 L 63.753906 205.128906 Z M 63.753906 190.632812 " fill-opacity="1" fill-rule="nonzero"/></g></g><g clip-path="url(#a5d479a40f)"><g clip-path="url(#4b7fb73630)"><path fill="#2a878f" d="M 57.394531 212.378906 L 102.585938 212.378906 L 102.585938 226.875 L 57.394531 226.875 Z M 57.394531 212.378906 " fill-opacity="1" fill-rule="nonzero"/></g></g><g clip-path="url(#e9a7bfc5bf)"><path fill="#1d1d1b" d="M 54.011719 148.125 L 21.453125 148.125 L 21.453125 168.609375 L 42.074219 168.609375 C 52.535156 168.609375 61.011719 177.089844 61.011719 187.550781 C 61.011719 192.78125 58.894531 197.515625 55.464844 200.941406 C 52.039062 204.371094 47.304688 206.492188 42.074219 206.492188 L 21.453125 206.492188 L 21.453125 226.976562 L 54.011719 226.976562 C 64.898438 226.976562 74.757812 222.566406 81.890625 215.429688 C 89.027344 208.292969 93.441406 198.441406 93.441406 187.550781 C 93.441406 165.773438 75.789062 148.125 54.011719 148.125 " fill-opacity="1" fill-rule="nonzero"/></g><g clip-path="url(#4d0b0347da)"><path fill="#1d1d1b" d="M 47.804688 195.660156 C 49.882812 193.585938 51.164062 190.714844 51.164062 187.550781 C 51.164062 181.21875 46.03125 176.082031 39.699219 176.082031 L 21.453125 176.082031 L 21.453125 199.019531 L 39.699219 199.019531 C 42.867188 199.019531 45.730469 197.734375 47.804688 195.660156 " fill-opacity="1" fill-rule="nonzero"/></g><g fill="#2a878f" fill-opacity="1"><g transform="translate(19.530095, 226.872232)"><g><path d="M -1.265625 -4.234375 C -1.265625 -4.285156 -1.242188 -4.332031 -1.203125 -4.375 L -0.78125 -4.765625 C -0.507812 -4.546875 -0.300781 -4.273438 -0.15625 -3.953125 C -0.0078125 -3.640625 0.0625 -3.257812 0.0625 -2.8125 C 0.0625 -2.414062 -0.00390625 -2.054688 -0.140625 -1.734375 C -0.273438 -1.421875 -0.460938 -1.148438 -0.703125 -0.921875 C -0.953125 -0.703125 -1.242188 -0.53125 -1.578125 -0.40625 C -1.910156 -0.289062 -2.28125 -0.234375 -2.6875 -0.234375 C -3.082031 -0.234375 -3.445312 -0.296875 -3.78125 -0.421875 C -4.125 -0.554688 -4.414062 -0.742188 -4.65625 -0.984375 C -4.894531 -1.234375 -5.082031 -1.523438 -5.21875 -1.859375 C -5.351562 -2.203125 -5.421875 -2.578125 -5.421875 -2.984375 C -5.421875 -3.378906 -5.359375 -3.722656 -5.234375 -4.015625 C -5.109375 -4.316406 -4.941406 -4.578125 -4.734375 -4.796875 L -4.265625 -4.453125 C -4.234375 -4.441406 -4.207031 -4.421875 -4.1875 -4.390625 C -4.164062 -4.359375 -4.15625 -4.3125 -4.15625 -4.25 C -4.15625 -4.195312 -4.175781 -4.140625 -4.21875 -4.078125 C -4.257812 -4.023438 -4.304688 -3.953125 -4.359375 -3.859375 C -4.410156 -3.765625 -4.457031 -3.644531 -4.5 -3.5 C -4.550781 -3.363281 -4.578125 -3.1875 -4.578125 -2.96875 C -4.578125 -2.71875 -4.53125 -2.488281 -4.4375 -2.28125 C -4.351562 -2.070312 -4.226562 -1.890625 -4.0625 -1.734375 C -3.90625 -1.578125 -3.707031 -1.457031 -3.46875 -1.375 C -3.238281 -1.289062 -2.976562 -1.25 -2.6875 -1.25 C -2.382812 -1.25 -2.113281 -1.289062 -1.875 -1.375 C -1.644531 -1.457031 -1.445312 -1.570312 -1.28125 -1.71875 C -1.125 -1.863281 -1 -2.035156 -0.90625 -2.234375 C -0.820312 -2.429688 -0.78125 -2.644531 -0.78125 -2.875 C -0.78125 -3.007812 -0.785156 -3.132812 -0.796875 -3.25 C -0.816406 -3.363281 -0.84375 -3.460938 -0.875 -3.546875 C -0.90625 -3.640625 -0.945312 -3.726562 -1 -3.8125 C -1.050781 -3.894531 -1.113281 -3.976562 -1.1875 -4.0625 C -1.207031 -4.082031 -1.222656 -4.109375 -1.234375 -4.140625 C -1.253906 -4.171875 -1.265625 -4.203125 -1.265625 -4.234375 Z M -1.265625 -4.234375 "/></g></g></g><g fill="#2a878f" fill-opacity="1"><g transform="translate(19.530095, 220.775979)"><g><path d="M -2.09375 -1.578125 L 0 -1.578125 L 0 -0.578125 L -5.359375 -0.578125 L -5.359375 -2.21875 C -5.359375 -2.582031 -5.320312 -2.894531 -5.25 -3.15625 C -5.175781 -3.414062 -5.070312 -3.628906 -4.9375 -3.796875 C -4.800781 -3.960938 -4.632812 -4.082031 -4.4375 -4.15625 C -4.25 -4.238281 -4.046875 -4.28125 -3.828125 -4.28125 C -3.640625 -4.28125 -3.460938 -4.253906 -3.296875 -4.203125 C -3.140625 -4.148438 -2.992188 -4.070312 -2.859375 -3.96875 C -2.734375 -3.863281 -2.617188 -3.738281 -2.515625 -3.59375 C -2.421875 -3.445312 -2.347656 -3.28125 -2.296875 -3.09375 C -2.222656 -3.21875 -2.117188 -3.328125 -1.984375 -3.421875 L 0 -4.765625 L 0 -3.859375 C 0 -3.773438 -0.015625 -3.703125 -0.046875 -3.640625 C -0.0859375 -3.585938 -0.140625 -3.535156 -0.203125 -3.484375 L -1.921875 -2.359375 C -1.984375 -2.316406 -2.023438 -2.269531 -2.046875 -2.21875 C -2.078125 -2.175781 -2.09375 -2.101562 -2.09375 -2 Z M -2.8125 -1.578125 L -2.8125 -2.203125 C -2.8125 -2.390625 -2.832031 -2.550781 -2.875 -2.6875 C -2.925781 -2.820312 -2.992188 -2.9375 -3.078125 -3.03125 C -3.160156 -3.125 -3.257812 -3.191406 -3.375 -3.234375 C -3.488281 -3.273438 -3.613281 -3.296875 -3.75 -3.296875 C -4.019531 -3.296875 -4.226562 -3.207031 -4.375 -3.03125 C -4.519531 -2.851562 -4.59375 -2.582031 -4.59375 -2.21875 L -4.59375 -1.578125 Z M -2.8125 -1.578125 "/></g></g></g><g fill="#2a878f" fill-opacity="1"><g transform="translate(19.530095, 214.794883)"><g><path d="M -2.234375 -3.234375 C -2.148438 -3.273438 -2.066406 -3.3125 -1.984375 -3.34375 C -1.898438 -3.382812 -1.8125 -3.421875 -1.71875 -3.453125 C -1.8125 -3.492188 -1.898438 -3.53125 -1.984375 -3.5625 C -2.066406 -3.601562 -2.148438 -3.644531 -2.234375 -3.6875 L -5.203125 -5.265625 C -5.242188 -5.285156 -5.273438 -5.304688 -5.296875 -5.328125 C -5.316406 -5.347656 -5.332031 -5.367188 -5.34375 -5.390625 C -5.351562 -5.421875 -5.359375 -5.453125 -5.359375 -5.484375 C -5.359375 -5.523438 -5.359375 -5.566406 -5.359375 -5.609375 L -5.359375 -6.359375 L 0 -6.359375 L 0 -5.484375 L -3.46875 -5.484375 C -3.53125 -5.484375 -3.597656 -5.484375 -3.671875 -5.484375 C -3.753906 -5.492188 -3.832031 -5.5 -3.90625 -5.5 L -0.875 -3.875 C -0.800781 -3.84375 -0.742188 -3.796875 -0.703125 -3.734375 C -0.671875 -3.671875 -0.65625 -3.601562 -0.65625 -3.53125 L -0.65625 -3.390625 C -0.65625 -3.304688 -0.671875 -3.234375 -0.703125 -3.171875 C -0.742188 -3.117188 -0.800781 -3.078125 -0.875 -3.046875 L -3.921875 -1.390625 C -3.835938 -1.398438 -3.753906 -1.40625 -3.671875 -1.40625 C -3.597656 -1.414062 -3.53125 -1.421875 -3.46875 -1.421875 L 0 -1.421875 L 0 -0.546875 L -5.359375 -0.546875 L -5.359375 -1.296875 C -5.359375 -1.335938 -5.359375 -1.375 -5.359375 -1.40625 C -5.359375 -1.4375 -5.351562 -1.460938 -5.34375 -1.484375 C -5.332031 -1.515625 -5.316406 -1.539062 -5.296875 -1.5625 C -5.273438 -1.59375 -5.242188 -1.617188 -5.203125 -1.640625 Z M -2.234375 -3.234375 "/></g></g></g><g fill="#1d1d1b" fill-opacity="1"><g transform="translate(140.87358, 185.320536)"><g><path d="M 2.90625 0 L 2.90625 -37.9375 L 28.046875 -37.9375 C 32.429688 -37.9375 36.179688 -37.585938 39.296875 -36.890625 C 42.410156 -36.203125 44.976562 -35.257812 47 -34.0625 C 49.019531 -32.875 50.597656 -31.515625 51.734375 -29.984375 C 52.878906 -28.453125 53.679688 -26.828125 54.140625 -25.109375 C 54.597656 -23.398438 54.828125 -21.691406 54.828125 -19.984375 L 54.828125 -18.46875 C 54.828125 -16.832031 54.601562 -15.15625 54.15625 -13.4375 C 53.71875 -11.71875 52.9375 -10.054688 51.8125 -8.453125 C 50.695312 -6.859375 49.125 -5.425781 47.09375 -4.15625 C 45.070312 -2.882812 42.515625 -1.875 39.421875 -1.125 C 36.328125 -0.375 32.550781 0 28.09375 0 Z M 14.796875 -28.96875 L 14.796875 -9.125 L 27.125 -9.125 C 30.5 -9.125 33.195312 -9.445312 35.21875 -10.09375 C 37.238281 -10.738281 38.765625 -11.5625 39.796875 -12.5625 C 40.835938 -13.570312 41.523438 -14.644531 41.859375 -15.78125 C 42.203125 -16.925781 42.375 -17.972656 42.375 -18.921875 L 42.375 -19.234375 C 42.375 -20.210938 42.210938 -21.265625 41.890625 -22.390625 C 41.566406 -23.515625 40.894531 -24.566406 39.875 -25.546875 C 38.863281 -26.535156 37.34375 -27.351562 35.3125 -28 C 33.289062 -28.644531 30.5625 -28.96875 27.125 -28.96875 Z M 14.796875 -28.96875 "/></g></g></g><g fill="#1d1d1b" fill-opacity="1"><g transform="translate(196.348748, 185.320536)"><g><path d="M 14.796875 -29.328125 L 14.796875 -21.875 L 32.796875 -21.875 C 34.492188 -21.875 35.71875 -22.226562 36.46875 -22.9375 C 37.21875 -23.65625 37.59375 -24.546875 37.59375 -25.609375 L 37.59375 -25.65625 C 37.59375 -26.632812 37.222656 -27.488281 36.484375 -28.21875 C 35.753906 -28.957031 34.523438 -29.328125 32.796875 -29.328125 Z M 14.796875 -13.46875 L 14.796875 0 L 2.90625 0 L 2.90625 -37.9375 L 33.5 -37.9375 C 37.71875 -37.9375 41.023438 -37.492188 43.421875 -36.609375 C 45.816406 -35.734375 47.507812 -34.554688 48.5 -33.078125 C 49.488281 -31.597656 49.984375 -29.9375 49.984375 -28.09375 L 49.984375 -27.484375 C 49.984375 -26.128906 49.734375 -24.96875 49.234375 -24 C 48.742188 -23.03125 48.125 -22.226562 47.375 -21.59375 C 46.625 -20.96875 45.847656 -20.457031 45.046875 -20.0625 C 44.253906 -19.675781 43.550781 -19.378906 42.9375 -19.171875 C 44.226562 -18.796875 45.414062 -18.234375 46.5 -17.484375 C 47.59375 -16.742188 48.472656 -15.796875 49.140625 -14.640625 C 49.804688 -13.484375 50.140625 -12.085938 50.140625 -10.453125 L 50.140625 -4.890625 C 50.140625 -3.359375 50.210938 -2.28125 50.359375 -1.65625 C 50.515625 -1.03125 50.675781 -0.5625 50.84375 -0.25 L 50.84375 0 L 38.765625 0 C 38.585938 -0.238281 38.445312 -0.523438 38.34375 -0.859375 C 38.25 -1.203125 38.203125 -1.710938 38.203125 -2.390625 L 38.203125 -6.78125 C 38.203125 -9.09375 37.613281 -10.785156 36.4375 -11.859375 C 35.269531 -12.929688 33.222656 -13.46875 30.296875 -13.46875 Z M 14.796875 -13.46875 "/></g></g></g><g fill="#1d1d1b" fill-opacity="1"><g transform="translate(247.744854, 185.320536)"><g><path d="M 14.796875 -37.9375 L 14.796875 0 L 2.90625 0 L 2.90625 -37.9375 Z M 14.796875 -37.9375 "/></g></g></g><g fill="#1d1d1b" fill-opacity="1"><g transform="translate(264.927836, 185.320536)"><g><path d="M 33.921875 0 L 19.125 0 L -0.609375 -37.9375 L 12.859375 -37.9375 L 26.828125 -10.046875 L 39.9375 -37.9375 L 52.28125 -37.9375 Z M 33.921875 0 "/></g></g></g><g fill="#1d1d1b" fill-opacity="1"><g transform="translate(316.068996, 185.320536)"><g><path d="M 2.90625 -37.9375 L 42.890625 -37.9375 L 42.890625 -29.328125 L 14.640625 -29.328125 L 14.640625 -23.71875 L 42.234375 -23.71875 L 42.234375 -15.046875 L 14.640625 -15.046875 L 14.640625 -8.828125 L 43.40625 -8.828125 L 43.40625 0 L 2.90625 0 Z M 2.90625 -37.9375 "/></g></g></g><g fill="#1d1d1b" fill-opacity="1"><g transform="translate(140.87358, 226.570533)"><g><path d="M 2.90625 -37.9375 L 42.125 -37.9375 L 42.125 -29.328125 L 14.734375 -29.328125 L 14.734375 -23.71875 L 41.46875 -23.71875 L 41.46875 -15.046875 L 14.734375 -15.046875 L 14.734375 0 L 2.90625 0 Z M 2.90625 -37.9375 "/></g></g></g><g fill="#1d1d1b" fill-opacity="1"><g transform="translate(184.570464, 226.570533)"><g><path d="M 2.90625 -37.9375 L 14.796875 -37.9375 L 14.796875 -9.4375 L 41.15625 -9.4375 L 41.15625 0 L 2.90625 0 Z M 2.90625 -37.9375 "/></g></g></g><g fill="#1d1d1b" fill-opacity="1"><g transform="translate(226.686714, 226.570533)"><g><path d="M 28.09375 -38.609375 L 30.296875 -38.609375 C 35.054688 -38.609375 39.039062 -38.179688 42.25 -37.328125 C 45.46875 -36.484375 48.050781 -35.363281 50 -33.96875 C 51.957031 -32.570312 53.4375 -31.039062 54.4375 -29.375 C 55.445312 -27.707031 56.117188 -26.039062 56.453125 -24.375 C 56.796875 -22.707031 56.96875 -21.195312 56.96875 -19.84375 L 56.96875 -18.3125 C 56.96875 -16.976562 56.796875 -15.46875 56.453125 -13.78125 C 56.117188 -12.101562 55.445312 -10.421875 54.4375 -8.734375 C 53.4375 -7.054688 51.957031 -5.503906 50 -4.078125 C 48.050781 -2.648438 45.476562 -1.503906 42.28125 -0.640625 C 39.082031 0.222656 35.085938 0.65625 30.296875 0.65625 L 28.09375 0.65625 C 24.082031 0.65625 20.628906 0.351562 17.734375 -0.25 C 14.847656 -0.863281 12.425781 -1.695312 10.46875 -2.75 C 8.519531 -3.800781 6.941406 -4.988281 5.734375 -6.3125 C 4.523438 -7.644531 3.609375 -9.015625 2.984375 -10.421875 C 2.359375 -11.835938 1.929688 -13.222656 1.703125 -14.578125 C 1.484375 -15.941406 1.375 -17.1875 1.375 -18.3125 L 1.375 -19.84375 C 1.375 -21.195312 1.539062 -22.707031 1.875 -24.375 C 2.21875 -26.039062 2.882812 -27.707031 3.875 -29.375 C 4.863281 -31.039062 6.332031 -32.570312 8.28125 -33.96875 C 10.238281 -35.363281 12.832031 -36.484375 16.0625 -37.328125 C 19.289062 -38.179688 23.300781 -38.609375 28.09375 -38.609375 Z M 44.515625 -18.765625 L 44.515625 -19.484375 C 44.515625 -20.566406 44.3125 -21.6875 43.90625 -22.84375 C 43.5 -24 42.75 -25.078125 41.65625 -26.078125 C 40.570312 -27.085938 39.023438 -27.894531 37.015625 -28.5 C 35.015625 -29.113281 32.398438 -29.421875 29.171875 -29.421875 C 25.910156 -29.421875 23.265625 -29.113281 21.234375 -28.5 C 19.210938 -27.894531 17.664062 -27.085938 16.59375 -26.078125 C 15.53125 -25.078125 14.800781 -24 14.40625 -22.84375 C 14.019531 -21.6875 13.828125 -20.566406 13.828125 -19.484375 L 13.828125 -18.875 C 13.828125 -17.78125 14.03125 -16.640625 14.4375 -15.453125 C 14.84375 -14.265625 15.585938 -13.140625 16.671875 -12.078125 C 17.765625 -11.023438 19.320312 -10.175781 21.34375 -9.53125 C 23.363281 -8.882812 25.972656 -8.5625 29.171875 -8.5625 C 32.367188 -8.5625 34.96875 -8.882812 36.96875 -9.53125 C 38.976562 -10.175781 40.523438 -11.007812 41.609375 -12.03125 C 42.703125 -13.050781 43.457031 -14.15625 43.875 -15.34375 C 44.300781 -16.539062 44.515625 -17.679688 44.515625 -18.765625 Z M 44.515625 -18.765625 "/></g></g></g><g fill="#1d1d1b" fill-opacity="1"><g transform="translate(284.507349, 226.570533)"><g><path d="M 28.09375 0 L 15 0 L -0.609375 -37.9375 L 12.34375 -37.9375 L 22.140625 -11.828125 L 30.59375 -37.9375 L 43.25 -37.9375 L 51.921875 -12.59375 L 61.5 -37.9375 L 73.1875 -37.9375 L 57.828125 0 L 45.84375 0 L 36.71875 -25.390625 Z M 28.09375 0 "/></g></g></g></svg>