<svg xmlns="http://www.w3.org/2000/svg" xmlns:xlink="http://www.w3.org/1999/xlink" width="500" zoomAndPan="magnify" viewBox="0 0 375 374.999991" height="500" preserveAspectRatio="xMidYMid meet" version="1.0"><defs><g/><clipPath id="fe6f0506c8"><path d="M 134.171875 78.175781 L 366 78.175781 L 366 118.425781 L 134.171875 118.425781 Z M 134.171875 78.175781 " clip-rule="nonzero"/></clipPath><clipPath id="9be8fb8dd0"><path d="M 358.359375 118.425781 L 141.757812 118.425781 C 137.578125 118.425781 134.171875 115.019531 134.171875 110.839844 L 134.171875 85.761719 C 134.171875 81.582031 137.578125 78.175781 141.757812 78.175781 L 358.359375 78.175781 C 362.539062 78.175781 365.941406 81.582031 365.941406 85.761719 L 365.941406 110.839844 C 365.941406 115.019531 362.539062 118.425781 358.359375 118.425781 Z M 358.359375 118.425781 " clip-rule="nonzero"/></clipPath><clipPath id="a14224c11d"><path d="M 151.824219 136.285156 L 335.621094 136.285156 L 335.621094 176.535156 L 151.824219 176.535156 Z M 151.824219 136.285156 " clip-rule="nonzero"/></clipPath><clipPath id="a71e98cb71"><path d="M 327.972656 176.535156 L 159.410156 176.535156 C 155.230469 176.535156 151.824219 173.128906 151.824219 168.949219 L 151.824219 143.871094 C 151.824219 139.691406 155.230469 136.285156 159.410156 136.285156 L 327.972656 136.285156 C 332.152344 136.285156 335.558594 139.691406 335.558594 143.871094 L 335.558594 168.949219 C 335.558594 173.128906 332.152344 176.535156 327.972656 176.535156 Z M 327.972656 176.535156 " clip-rule="nonzero"/></clipPath><clipPath id="977b9a8b21"><path d="M 151.824219 196.191406 L 288.136719 196.191406 L 288.136719 236.441406 L 151.824219 236.441406 Z M 151.824219 196.191406 " clip-rule="nonzero"/></clipPath><clipPath id="25c729107b"><path d="M 280.496094 236.441406 L 159.410156 236.441406 C 155.230469 236.441406 151.824219 233.035156 151.824219 228.855469 L 151.824219 203.777344 C 151.824219 199.597656 155.230469 196.191406 159.410156 196.191406 L 280.496094 196.191406 C 284.675781 196.191406 288.082031 199.597656 288.082031 203.777344 L 288.082031 228.855469 C 288.082031 233.035156 284.675781 236.441406 280.496094 236.441406 Z M 280.496094 236.441406 " clip-rule="nonzero"/></clipPath><clipPath id="6faea44e17"><path d="M 134.171875 256.574219 L 259.636719 256.574219 L 259.636719 296.824219 L 134.171875 296.824219 Z M 134.171875 256.574219 " clip-rule="nonzero"/></clipPath><clipPath id="f2cc90f3cc"><path d="M 252.011719 296.824219 L 141.757812 296.824219 C 137.578125 296.824219 134.171875 293.417969 134.171875 289.238281 L 134.171875 264.160156 C 134.171875 259.980469 137.578125 256.574219 141.757812 256.574219 L 252.011719 256.574219 C 256.191406 256.574219 259.597656 259.980469 259.597656 264.160156 L 259.597656 289.238281 C 259.597656 293.417969 256.191406 296.824219 252.011719 296.824219 Z M 252.011719 296.824219 " clip-rule="nonzero"/></clipPath><clipPath id="2d2800bd01"><path d="M 34.273438 78.175781 L 234.347656 78.175781 L 234.347656 297.125 L 34.273438 297.125 Z M 34.273438 78.175781 " clip-rule="nonzero"/></clipPath><clipPath id="0a40725e8f"><path d="M 34.273438 155 L 117 155 L 117 220 L 34.273438 220 Z M 34.273438 155 " clip-rule="nonzero"/></clipPath></defs><rect x="-37.5" width="450" fill="#ffffff" y="-37.499999" height="449.999989" fill-opacity="1"/><g clip-path="url(#fe6f0506c8)"><g clip-path="url(#9be8fb8dd0)"><path fill="#44d9e6" d="M 134.171875 78.175781 L 365.921875 78.175781 L 365.921875 118.425781 L 134.171875 118.425781 Z M 134.171875 78.175781 " fill-opacity="1" fill-rule="nonzero"/></g></g><g clip-path="url(#a14224c11d)"><g clip-path="url(#a71e98cb71)"><path fill="#44d9e6" d="M 151.824219 136.285156 L 335.621094 136.285156 L 335.621094 176.535156 L 151.824219 176.535156 Z M 151.824219 136.285156 " fill-opacity="1" fill-rule="nonzero"/></g></g><g clip-path="url(#977b9a8b21)"><g clip-path="url(#25c729107b)"><path fill="#44d9e6" d="M 151.824219 196.191406 L 288.136719 196.191406 L 288.136719 236.441406 L 151.824219 236.441406 Z M 151.824219 196.191406 " fill-opacity="1" fill-rule="nonzero"/></g></g><g clip-path="url(#6faea44e17)"><g clip-path="url(#f2cc90f3cc)"><path fill="#2a878f" d="M 134.171875 256.574219 L 259.636719 256.574219 L 259.636719 296.824219 L 134.171875 296.824219 Z M 134.171875 256.574219 " fill-opacity="1" fill-rule="nonzero"/></g></g><g clip-path="url(#2d2800bd01)"><path fill="#1d1d1b" d="M 124.773438 78.175781 L 34.375 78.175781 L 34.375 135.054688 L 91.625 135.054688 C 120.671875 135.054688 144.210938 158.597656 144.210938 187.640625 C 144.210938 202.160156 138.328125 215.308594 128.8125 224.820312 C 119.296875 234.335938 106.144531 240.226562 91.625 240.226562 L 34.375 240.226562 L 34.375 297.109375 L 124.773438 297.109375 C 155 297.109375 182.371094 284.859375 202.183594 265.042969 C 221.992188 245.234375 234.246094 217.875 234.246094 187.640625 C 234.246094 127.179688 185.234375 78.175781 124.773438 78.175781 " fill-opacity="1" fill-rule="nonzero"/></g><g clip-path="url(#0a40725e8f)"><path fill="#1d1d1b" d="M 107.542969 210.152344 C 113.3125 204.394531 116.871094 196.429688 116.871094 187.640625 C 116.871094 170.058594 102.617188 155.800781 85.03125 155.800781 L 34.375 155.800781 L 34.375 219.484375 L 85.03125 219.484375 C 93.828125 219.484375 101.785156 215.914062 107.542969 210.152344 " fill-opacity="1" fill-rule="nonzero"/></g><g fill="#2a878f" fill-opacity="1"><g transform="translate(28.072903, 294.847676)"><g><path d="M -3.53125 -11.796875 C -3.53125 -11.953125 -3.472656 -12.082031 -3.359375 -12.1875 L -2.15625 -13.296875 C -1.40625 -12.679688 -0.828125 -11.929688 -0.421875 -11.046875 C -0.0234375 -10.160156 0.171875 -9.097656 0.171875 -7.859375 C 0.171875 -6.742188 -0.015625 -5.742188 -0.390625 -4.859375 C -0.773438 -3.972656 -1.304688 -3.210938 -1.984375 -2.578125 C -2.660156 -1.953125 -3.46875 -1.472656 -4.40625 -1.140625 C -5.34375 -0.804688 -6.367188 -0.640625 -7.484375 -0.640625 C -8.609375 -0.640625 -9.640625 -0.828125 -10.578125 -1.203125 C -11.515625 -1.578125 -12.316406 -2.097656 -12.984375 -2.765625 C -13.660156 -3.441406 -14.1875 -4.25 -14.5625 -5.1875 C -14.945312 -6.132812 -15.140625 -7.179688 -15.140625 -8.328125 C -15.140625 -9.429688 -14.957031 -10.398438 -14.59375 -11.234375 C -14.238281 -12.066406 -13.769531 -12.78125 -13.1875 -13.375 L -11.890625 -12.4375 C -11.804688 -12.382812 -11.734375 -12.3125 -11.671875 -12.21875 C -11.609375 -12.132812 -11.578125 -12.019531 -11.578125 -11.875 C -11.578125 -11.71875 -11.640625 -11.554688 -11.765625 -11.390625 C -11.890625 -11.222656 -12.023438 -11.007812 -12.171875 -10.75 C -12.316406 -10.5 -12.453125 -10.175781 -12.578125 -9.78125 C -12.703125 -9.394531 -12.765625 -8.898438 -12.765625 -8.296875 C -12.765625 -7.597656 -12.640625 -6.953125 -12.390625 -6.359375 C -12.148438 -5.765625 -11.800781 -5.253906 -11.34375 -4.828125 C -10.882812 -4.410156 -10.328125 -4.082031 -9.671875 -3.84375 C -9.023438 -3.601562 -8.296875 -3.484375 -7.484375 -3.484375 C -6.640625 -3.484375 -5.890625 -3.601562 -5.234375 -3.84375 C -4.578125 -4.082031 -4.023438 -4.40625 -3.578125 -4.8125 C -3.128906 -5.21875 -2.785156 -5.695312 -2.546875 -6.25 C -2.304688 -6.800781 -2.1875 -7.394531 -2.1875 -8.03125 C -2.1875 -8.414062 -2.207031 -8.757812 -2.25 -9.0625 C -2.289062 -9.375 -2.359375 -9.65625 -2.453125 -9.90625 C -2.546875 -10.164062 -2.660156 -10.410156 -2.796875 -10.640625 C -2.941406 -10.878906 -3.117188 -11.109375 -3.328125 -11.328125 C -3.390625 -11.398438 -3.4375 -11.472656 -3.46875 -11.546875 C -3.507812 -11.628906 -3.53125 -11.710938 -3.53125 -11.796875 Z M -3.53125 -11.796875 "/></g></g></g><g fill="#2a878f" fill-opacity="1"><g transform="translate(28.072903, 277.872033)"><g><path d="M -5.84375 -4.390625 L 0 -4.390625 L 0 -1.609375 L -14.96875 -1.609375 L -14.96875 -6.171875 C -14.96875 -7.191406 -14.863281 -8.066406 -14.65625 -8.796875 C -14.445312 -9.523438 -14.148438 -10.117188 -13.765625 -10.578125 C -13.390625 -11.046875 -12.9375 -11.390625 -12.40625 -11.609375 C -11.875 -11.828125 -11.289062 -11.9375 -10.65625 -11.9375 C -10.15625 -11.9375 -9.679688 -11.859375 -9.234375 -11.703125 C -8.785156 -11.554688 -8.378906 -11.34375 -8.015625 -11.0625 C -7.648438 -10.789062 -7.328125 -10.445312 -7.046875 -10.03125 C -6.773438 -9.625 -6.554688 -9.160156 -6.390625 -8.640625 C -6.191406 -8.984375 -5.90625 -9.285156 -5.53125 -9.546875 L 0 -13.296875 L 0 -10.78125 C 0 -10.539062 -0.046875 -10.335938 -0.140625 -10.171875 C -0.242188 -10.003906 -0.382812 -9.859375 -0.5625 -9.734375 L -5.359375 -6.59375 C -5.535156 -6.476562 -5.660156 -6.347656 -5.734375 -6.203125 C -5.804688 -6.066406 -5.84375 -5.859375 -5.84375 -5.578125 Z M -7.84375 -4.390625 L -7.84375 -6.125 C -7.84375 -6.65625 -7.90625 -7.113281 -8.03125 -7.5 C -8.164062 -7.882812 -8.347656 -8.203125 -8.578125 -8.453125 C -8.816406 -8.710938 -9.09375 -8.90625 -9.40625 -9.03125 C -9.726562 -9.15625 -10.078125 -9.21875 -10.453125 -9.21875 C -11.210938 -9.21875 -11.796875 -8.96875 -12.203125 -8.46875 C -12.609375 -7.96875 -12.8125 -7.203125 -12.8125 -6.171875 L -12.8125 -4.390625 Z M -7.84375 -4.390625 "/></g></g></g><g fill="#2a878f" fill-opacity="1"><g transform="translate(28.072903, 261.217041)"><g><path d="M -6.21875 -9.03125 C -5.988281 -9.144531 -5.753906 -9.25 -5.515625 -9.34375 C -5.285156 -9.445312 -5.046875 -9.546875 -4.796875 -9.640625 C -5.046875 -9.742188 -5.289062 -9.847656 -5.53125 -9.953125 C -5.78125 -10.054688 -6.015625 -10.164062 -6.234375 -10.28125 L -14.515625 -14.703125 C -14.617188 -14.765625 -14.703125 -14.820312 -14.765625 -14.875 C -14.828125 -14.9375 -14.875 -15.003906 -14.90625 -15.078125 C -14.9375 -15.148438 -14.953125 -15.226562 -14.953125 -15.3125 C -14.960938 -15.40625 -14.96875 -15.515625 -14.96875 -15.640625 L -14.96875 -17.75 L 0 -17.75 L 0 -15.296875 L -9.671875 -15.296875 C -9.847656 -15.296875 -10.039062 -15.300781 -10.25 -15.3125 C -10.46875 -15.320312 -10.6875 -15.332031 -10.90625 -15.34375 L -2.421875 -10.828125 C -2.222656 -10.722656 -2.070312 -10.585938 -1.96875 -10.421875 C -1.863281 -10.253906 -1.8125 -10.0625 -1.8125 -9.84375 L -1.8125 -9.46875 C -1.8125 -9.238281 -1.863281 -9.039062 -1.96875 -8.875 C -2.070312 -8.71875 -2.222656 -8.585938 -2.421875 -8.484375 L -10.9375 -3.890625 C -10.707031 -3.921875 -10.484375 -3.941406 -10.265625 -3.953125 C -10.054688 -3.960938 -9.859375 -3.96875 -9.671875 -3.96875 L 0 -3.96875 L 0 -1.515625 L -14.96875 -1.515625 L -14.96875 -3.609375 C -14.96875 -3.734375 -14.960938 -3.835938 -14.953125 -3.921875 C -14.953125 -4.015625 -14.9375 -4.097656 -14.90625 -4.171875 C -14.875 -4.242188 -14.828125 -4.3125 -14.765625 -4.375 C -14.703125 -4.4375 -14.617188 -4.5 -14.515625 -4.5625 Z M -6.21875 -9.03125 "/></g></g></g></svg>